# Blender 4.4.3
# www.blender.org
mtllib ConvenienceShelf_Final.mtl
o Base
v -0.450000 0.000000 0.225000
v -0.450000 0.100000 0.225000
v -0.450000 0.000000 -0.225000
v -0.450000 0.100000 -0.225000
v 0.450000 0.000000 0.225000
v 0.450000 0.100000 0.225000
v 0.450000 0.000000 -0.225000
v 0.450000 0.100000 -0.225000
vn -1.0000 -0.0000 -0.0000
vn -0.0000 -0.0000 -1.0000
vn 1.0000 -0.0000 -0.0000
vn -0.0000 -0.0000 1.0000
vn -0.0000 -1.0000 -0.0000
vn -0.0000 1.0000 -0.0000
vt 0.375000 0.000000
vt 0.625000 0.000000
vt 0.625000 0.250000
vt 0.375000 0.250000
vt 0.625000 0.500000
vt 0.375000 0.500000
vt 0.625000 0.750000
vt 0.375000 0.750000
vt 0.625000 1.000000
vt 0.375000 1.000000
vt 0.125000 0.500000
vt 0.125000 0.750000
vt 0.875000 0.500000
vt 0.875000 0.750000
s 0
usemtl Black_Frame
f 1/1/1 2/2/1 4/3/1 3/4/1
f 3/4/2 4/3/2 8/5/2 7/6/2
f 7/6/3 8/5/3 6/7/3 5/8/3
f 5/8/4 6/7/4 2/9/4 1/10/4
f 3/11/5 7/6/5 5/8/5 1/12/5
f 8/5/6 4/13/6 2/14/6 6/7/6
o Corner_Pillar_1
v -0.450000 0.100000 0.225000
v -0.450000 1.600000 0.225000
v -0.450000 0.100000 0.195000
v -0.450000 1.600000 0.195000
v -0.420000 0.100000 0.225000
v -0.420000 1.600000 0.225000
v -0.420000 0.100000 0.195000
v -0.420000 1.600000 0.195000
vn -1.0000 -0.0000 -0.0000
vn -0.0000 -0.0000 -1.0000
vn 1.0000 -0.0000 -0.0000
vn -0.0000 -0.0000 1.0000
vn -0.0000 -1.0000 -0.0000
vn -0.0000 1.0000 -0.0000
vt 0.375000 0.000000
vt 0.625000 0.000000
vt 0.625000 0.250000
vt 0.375000 0.250000
vt 0.625000 0.500000
vt 0.375000 0.500000
vt 0.625000 0.750000
vt 0.375000 0.750000
vt 0.625000 1.000000
vt 0.375000 1.000000
vt 0.125000 0.500000
vt 0.125000 0.750000
vt 0.875000 0.500000
vt 0.875000 0.750000
s 0
usemtl Black_Frame
f 9/15/7 10/16/7 12/17/7 11/18/7
f 11/18/8 12/17/8 16/19/8 15/20/8
f 15/20/9 16/19/9 14/21/9 13/22/9
f 13/22/10 14/21/10 10/23/10 9/24/10
f 11/25/11 15/20/11 13/22/11 9/26/11
f 16/19/12 12/27/12 10/28/12 14/21/12
o Corner_Pillar_2
v 0.420000 0.100000 0.225000
v 0.420000 1.600000 0.225000
v 0.420000 0.100000 0.195000
v 0.420000 1.600000 0.195000
v 0.450000 0.100000 0.225000
v 0.450000 1.600000 0.225000
v 0.450000 0.100000 0.195000
v 0.450000 1.600000 0.195000
vn -1.0000 -0.0000 -0.0000
vn -0.0000 -0.0000 -1.0000
vn 1.0000 -0.0000 -0.0000
vn -0.0000 -0.0000 1.0000
vn -0.0000 -1.0000 -0.0000
vn -0.0000 1.0000 -0.0000
vt 0.375000 0.000000
vt 0.625000 0.000000
vt 0.625000 0.250000
vt 0.375000 0.250000
vt 0.625000 0.500000
vt 0.375000 0.500000
vt 0.625000 0.750000
vt 0.375000 0.750000
vt 0.625000 1.000000
vt 0.375000 1.000000
vt 0.125000 0.500000
vt 0.125000 0.750000
vt 0.875000 0.500000
vt 0.875000 0.750000
s 0
usemtl Black_Frame
f 17/29/13 18/30/13 20/31/13 19/32/13
f 19/32/14 20/31/14 24/33/14 23/34/14
f 23/34/15 24/33/15 22/35/15 21/36/15
f 21/36/16 22/35/16 18/37/16 17/38/16
f 19/39/17 23/34/17 21/36/17 17/40/17
f 24/33/18 20/41/18 18/42/18 22/35/18
o Corner_Pillar_3
v -0.450000 0.100000 -0.195000
v -0.450000 1.600000 -0.195000
v -0.450000 0.100000 -0.225000
v -0.450000 1.600000 -0.225000
v -0.420000 0.100000 -0.195000
v -0.420000 1.600000 -0.195000
v -0.420000 0.100000 -0.225000
v -0.420000 1.600000 -0.225000
vn -1.0000 -0.0000 -0.0000
vn -0.0000 -0.0000 -1.0000
vn 1.0000 -0.0000 -0.0000
vn -0.0000 -0.0000 1.0000
vn -0.0000 -1.0000 -0.0000
vn -0.0000 1.0000 -0.0000
vt 0.375000 0.000000
vt 0.625000 0.000000
vt 0.625000 0.250000
vt 0.375000 0.250000
vt 0.625000 0.500000
vt 0.375000 0.500000
vt 0.625000 0.750000
vt 0.375000 0.750000
vt 0.625000 1.000000
vt 0.375000 1.000000
vt 0.125000 0.500000
vt 0.125000 0.750000
vt 0.875000 0.500000
vt 0.875000 0.750000
s 0
usemtl Black_Frame
f 25/43/19 26/44/19 28/45/19 27/46/19
f 27/46/20 28/45/20 32/47/20 31/48/20
f 31/48/21 32/47/21 30/49/21 29/50/21
f 29/50/22 30/49/22 26/51/22 25/52/22
f 27/53/23 31/48/23 29/50/23 25/54/23
f 32/47/24 28/55/24 26/56/24 30/49/24
o Corner_Pillar_4
v 0.420000 0.100000 -0.195000
v 0.420000 1.600000 -0.195000
v 0.420000 0.100000 -0.225000
v 0.420000 1.600000 -0.225000
v 0.450000 0.100000 -0.195000
v 0.450000 1.600000 -0.195000
v 0.450000 0.100000 -0.225000
v 0.450000 1.600000 -0.225000
vn -1.0000 -0.0000 -0.0000
vn -0.0000 -0.0000 -1.0000
vn 1.0000 -0.0000 -0.0000
vn -0.0000 -0.0000 1.0000
vn -0.0000 -1.0000 -0.0000
vn -0.0000 1.0000 -0.0000
vt 0.375000 0.000000
vt 0.625000 0.000000
vt 0.625000 0.250000
vt 0.375000 0.250000
vt 0.625000 0.500000
vt 0.375000 0.500000
vt 0.625000 0.750000
vt 0.375000 0.750000
vt 0.625000 1.000000
vt 0.375000 1.000000
vt 0.125000 0.500000
vt 0.125000 0.750000
vt 0.875000 0.500000
vt 0.875000 0.750000
s 0
usemtl Black_Frame
f 33/57/25 34/58/25 36/59/25 35/60/25
f 35/60/26 36/59/26 40/61/26 39/62/26
f 39/62/27 40/61/27 38/63/27 37/64/27
f 37/64/28 38/63/28 34/65/28 33/66/28
f 35/67/29 39/62/29 37/64/29 33/68/29
f 40/61/30 36/69/30 34/70/30 38/63/30
o Top_Frame_Front
v -0.450000 1.570000 -0.195000
v -0.450000 1.600000 -0.195000
v -0.450000 1.570000 -0.225000
v -0.450000 1.600000 -0.225000
v 0.450000 1.570000 -0.195000
v 0.450000 1.600000 -0.195000
v 0.450000 1.570000 -0.225000
v 0.450000 1.600000 -0.225000
vn -1.0000 -0.0000 -0.0000
vn -0.0000 -0.0000 -1.0000
vn 1.0000 -0.0000 -0.0000
vn -0.0000 -0.0000 1.0000
vn -0.0000 -1.0000 -0.0000
vn -0.0000 1.0000 -0.0000
vt 0.375000 0.000000
vt 0.625000 0.000000
vt 0.625000 0.250000
vt 0.375000 0.250000
vt 0.625000 0.500000
vt 0.375000 0.500000
vt 0.625000 0.750000
vt 0.375000 0.750000
vt 0.625000 1.000000
vt 0.375000 1.000000
vt 0.125000 0.500000
vt 0.125000 0.750000
vt 0.875000 0.500000
vt 0.875000 0.750000
s 0
usemtl Black_Frame
f 41/71/31 42/72/31 44/73/31 43/74/31
f 43/74/32 44/73/32 48/75/32 47/76/32
f 47/76/33 48/75/33 46/77/33 45/78/33
f 45/78/34 46/77/34 42/79/34 41/80/34
f 43/81/35 47/76/35 45/78/35 41/82/35
f 48/75/36 44/83/36 42/84/36 46/77/36
o Top_Frame_Back
v -0.450000 1.570000 0.225000
v -0.450000 1.600000 0.225000
v -0.450000 1.570000 0.195000
v -0.450000 1.600000 0.195000
v 0.450000 1.570000 0.225000
v 0.450000 1.600000 0.225000
v 0.450000 1.570000 0.195000
v 0.450000 1.600000 0.195000
vn -1.0000 -0.0000 -0.0000
vn -0.0000 -0.0000 -1.0000
vn 1.0000 -0.0000 -0.0000
vn -0.0000 -0.0000 1.0000
vn -0.0000 -1.0000 -0.0000
vn -0.0000 1.0000 -0.0000
vt 0.375000 0.000000
vt 0.625000 0.000000
vt 0.625000 0.250000
vt 0.375000 0.250000
vt 0.625000 0.500000
vt 0.375000 0.500000
vt 0.625000 0.750000
vt 0.375000 0.750000
vt 0.625000 1.000000
vt 0.375000 1.000000
vt 0.125000 0.500000
vt 0.125000 0.750000
vt 0.875000 0.500000
vt 0.875000 0.750000
s 0
usemtl Black_Frame
f 49/85/37 50/86/37 52/87/37 51/88/37
f 51/88/38 52/87/38 56/89/38 55/90/38
f 55/90/39 56/89/39 54/91/39 53/92/39
f 53/92/40 54/91/40 50/93/40 49/94/40
f 51/95/41 55/90/41 53/92/41 49/96/41
f 56/89/42 52/97/42 50/98/42 54/91/42
o Top_Frame_Left
v -0.450000 1.570000 0.195000
v -0.450000 1.600000 0.195000
v -0.450000 1.570000 -0.195000
v -0.450000 1.600000 -0.195000
v -0.420000 1.570000 0.195000
v -0.420000 1.600000 0.195000
v -0.420000 1.570000 -0.195000
v -0.420000 1.600000 -0.195000
vn -1.0000 -0.0000 -0.0000
vn -0.0000 -0.0000 -1.0000
vn 1.0000 -0.0000 -0.0000
vn -0.0000 -0.0000 1.0000
vn -0.0000 -1.0000 -0.0000
vn -0.0000 1.0000 -0.0000
vt 0.375000 0.000000
vt 0.625000 0.000000
vt 0.625000 0.250000
vt 0.375000 0.250000
vt 0.625000 0.500000
vt 0.375000 0.500000
vt 0.625000 0.750000
vt 0.375000 0.750000
vt 0.625000 1.000000
vt 0.375000 1.000000
vt 0.125000 0.500000
vt 0.125000 0.750000
vt 0.875000 0.500000
vt 0.875000 0.750000
s 0
usemtl Black_Frame
f 57/99/43 58/100/43 60/101/43 59/102/43
f 59/102/44 60/101/44 64/103/44 63/104/44
f 63/104/45 64/103/45 62/105/45 61/106/45
f 61/106/46 62/105/46 58/107/46 57/108/46
f 59/109/47 63/104/47 61/106/47 57/110/47
f 64/103/48 60/111/48 58/112/48 62/105/48
o Top_Frame_Right
v 0.420000 1.570000 0.195000
v 0.420000 1.600000 0.195000
v 0.420000 1.570000 -0.195000
v 0.420000 1.600000 -0.195000
v 0.450000 1.570000 0.195000
v 0.450000 1.600000 0.195000
v 0.450000 1.570000 -0.195000
v 0.450000 1.600000 -0.195000
vn -1.0000 -0.0000 -0.0000
vn -0.0000 -0.0000 -1.0000
vn 1.0000 -0.0000 -0.0000
vn -0.0000 -0.0000 1.0000
vn -0.0000 -1.0000 -0.0000
vn -0.0000 1.0000 -0.0000
vt 0.375000 0.000000
vt 0.625000 0.000000
vt 0.625000 0.250000
vt 0.375000 0.250000
vt 0.625000 0.500000
vt 0.375000 0.500000
vt 0.625000 0.750000
vt 0.375000 0.750000
vt 0.625000 1.000000
vt 0.375000 1.000000
vt 0.125000 0.500000
vt 0.125000 0.750000
vt 0.875000 0.500000
vt 0.875000 0.750000
s 0
usemtl Black_Frame
f 65/113/49 66/114/49 68/115/49 67/116/49
f 67/116/50 68/115/50 72/117/50 71/118/50
f 71/118/51 72/117/51 70/119/51 69/120/51
f 69/120/52 70/119/52 66/121/52 65/122/52
f 67/123/53 71/118/53 69/120/53 65/124/53
f 72/117/54 68/125/54 66/126/54 70/119/54
o Shelf_1
v -0.415000 0.347500 0.205000
v -0.415000 0.377500 0.205000
v -0.415000 0.347500 -0.205000
v -0.415000 0.377500 -0.205000
v 0.415000 0.347500 0.205000
v 0.415000 0.377500 0.205000
v 0.415000 0.347500 -0.205000
v 0.415000 0.377500 -0.205000
vn -1.0000 -0.0000 -0.0000
vn -0.0000 -0.0000 -1.0000
vn 1.0000 -0.0000 -0.0000
vn -0.0000 -0.0000 1.0000
vn -0.0000 -1.0000 -0.0000
vn -0.0000 1.0000 -0.0000
vt 0.375000 0.000000
vt 0.625000 0.000000
vt 0.625000 0.250000
vt 0.375000 0.250000
vt 0.625000 0.500000
vt 0.375000 0.500000
vt 0.625000 0.750000
vt 0.375000 0.750000
vt 0.625000 1.000000
vt 0.375000 1.000000
vt 0.125000 0.500000
vt 0.125000 0.750000
vt 0.875000 0.500000
vt 0.875000 0.750000
s 0
usemtl Black_Shelf
f 73/127/55 74/128/55 76/129/55 75/130/55
f 75/130/56 76/129/56 80/131/56 79/132/56
f 79/132/57 80/131/57 78/133/57 77/134/57
f 77/134/58 78/133/58 74/135/58 73/136/58
f 75/137/59 79/132/59 77/134/59 73/138/59
f 80/131/60 76/139/60 74/140/60 78/133/60
o Blue_Edge_1
v -0.415000 0.372500 -0.165000
v -0.415000 0.412500 -0.165000
v -0.415000 0.372500 -0.185000
v -0.415000 0.412500 -0.185000
v 0.415000 0.372500 -0.165000
v 0.415000 0.412500 -0.165000
v 0.415000 0.372500 -0.185000
v 0.415000 0.412500 -0.185000
vn -1.0000 -0.0000 -0.0000
vn -0.0000 -0.0000 -1.0000
vn 1.0000 -0.0000 -0.0000
vn -0.0000 -0.0000 1.0000
vn -0.0000 -1.0000 -0.0000
vn -0.0000 1.0000 -0.0000
vt 0.375000 0.000000
vt 0.625000 0.000000
vt 0.625000 0.250000
vt 0.375000 0.250000
vt 0.625000 0.500000
vt 0.375000 0.500000
vt 0.625000 0.750000
vt 0.375000 0.750000
vt 0.625000 1.000000
vt 0.375000 1.000000
vt 0.125000 0.500000
vt 0.125000 0.750000
vt 0.875000 0.500000
vt 0.875000 0.750000
s 0
usemtl Blue_Edge
f 81/141/61 82/142/61 84/143/61 83/144/61
f 83/144/62 84/143/62 88/145/62 87/146/62
f 87/146/63 88/145/63 86/147/63 85/148/63
f 85/148/64 86/147/64 82/149/64 81/150/64
f 83/151/65 87/146/65 85/148/65 81/152/65
f 88/145/66 84/153/66 82/154/66 86/147/66
o Shelf_2
v -0.415000 0.672500 0.205000
v -0.415000 0.702500 0.205000
v -0.415000 0.672500 -0.205000
v -0.415000 0.702500 -0.205000
v 0.415000 0.672500 0.205000
v 0.415000 0.702500 0.205000
v 0.415000 0.672500 -0.205000
v 0.415000 0.702500 -0.205000
vn -1.0000 -0.0000 -0.0000
vn -0.0000 -0.0000 -1.0000
vn 1.0000 -0.0000 -0.0000
vn -0.0000 -0.0000 1.0000
vn -0.0000 -1.0000 -0.0000
vn -0.0000 1.0000 -0.0000
vt 0.375000 0.000000
vt 0.625000 0.000000
vt 0.625000 0.250000
vt 0.375000 0.250000
vt 0.625000 0.500000
vt 0.375000 0.500000
vt 0.625000 0.750000
vt 0.375000 0.750000
vt 0.625000 1.000000
vt 0.375000 1.000000
vt 0.125000 0.500000
vt 0.125000 0.750000
vt 0.875000 0.500000
vt 0.875000 0.750000
s 0
usemtl Black_Shelf
f 89/155/67 90/156/67 92/157/67 91/158/67
f 91/158/68 92/157/68 96/159/68 95/160/68
f 95/160/69 96/159/69 94/161/69 93/162/69
f 93/162/70 94/161/70 90/163/70 89/164/70
f 91/165/71 95/160/71 93/162/71 89/166/71
f 96/159/72 92/167/72 90/168/72 94/161/72
o Blue_Edge_2
v -0.415000 0.697500 -0.165000
v -0.415000 0.737500 -0.165000
v -0.415000 0.697500 -0.185000
v -0.415000 0.737500 -0.185000
v 0.415000 0.697500 -0.165000
v 0.415000 0.737500 -0.165000
v 0.415000 0.697500 -0.185000
v 0.415000 0.737500 -0.185000
vn -1.0000 -0.0000 -0.0000
vn -0.0000 -0.0000 -1.0000
vn 1.0000 -0.0000 -0.0000
vn -0.0000 -0.0000 1.0000
vn -0.0000 -1.0000 -0.0000
vn -0.0000 1.0000 -0.0000
vt 0.375000 0.000000
vt 0.625000 0.000000
vt 0.625000 0.250000
vt 0.375000 0.250000
vt 0.625000 0.500000
vt 0.375000 0.500000
vt 0.625000 0.750000
vt 0.375000 0.750000
vt 0.625000 1.000000
vt 0.375000 1.000000
vt 0.125000 0.500000
vt 0.125000 0.750000
vt 0.875000 0.500000
vt 0.875000 0.750000
s 0
usemtl Blue_Edge
f 97/169/73 98/170/73 100/171/73 99/172/73
f 99/172/74 100/171/74 104/173/74 103/174/74
f 103/174/75 104/173/75 102/175/75 101/176/75
f 101/176/76 102/175/76 98/177/76 97/178/76
f 99/179/77 103/174/77 101/176/77 97/180/77
f 104/173/78 100/181/78 98/182/78 102/175/78
o Shelf_3
v -0.415000 0.997500 0.205000
v -0.415000 1.027500 0.205000
v -0.415000 0.997500 -0.205000
v -0.415000 1.027500 -0.205000
v 0.415000 0.997500 0.205000
v 0.415000 1.027500 0.205000
v 0.415000 0.997500 -0.205000
v 0.415000 1.027500 -0.205000
vn -1.0000 -0.0000 -0.0000
vn -0.0000 -0.0000 -1.0000
vn 1.0000 -0.0000 -0.0000
vn -0.0000 -0.0000 1.0000
vn -0.0000 -1.0000 -0.0000
vn -0.0000 1.0000 -0.0000
vt 0.375000 0.000000
vt 0.625000 0.000000
vt 0.625000 0.250000
vt 0.375000 0.250000
vt 0.625000 0.500000
vt 0.375000 0.500000
vt 0.625000 0.750000
vt 0.375000 0.750000
vt 0.625000 1.000000
vt 0.375000 1.000000
vt 0.125000 0.500000
vt 0.125000 0.750000
vt 0.875000 0.500000
vt 0.875000 0.750000
s 0
usemtl Black_Shelf
f 105/183/79 106/184/79 108/185/79 107/186/79
f 107/186/80 108/185/80 112/187/80 111/188/80
f 111/188/81 112/187/81 110/189/81 109/190/81
f 109/190/82 110/189/82 106/191/82 105/192/82
f 107/193/83 111/188/83 109/190/83 105/194/83
f 112/187/84 108/195/84 106/196/84 110/189/84
o Blue_Edge_3
v -0.415000 1.022500 -0.165000
v -0.415000 1.062500 -0.165000
v -0.415000 1.022500 -0.185000
v -0.415000 1.062500 -0.185000
v 0.415000 1.022500 -0.165000
v 0.415000 1.062500 -0.165000
v 0.415000 1.022500 -0.185000
v 0.415000 1.062500 -0.185000
vn -1.0000 -0.0000 -0.0000
vn -0.0000 -0.0000 -1.0000
vn 1.0000 -0.0000 -0.0000
vn -0.0000 -0.0000 1.0000
vn -0.0000 -1.0000 -0.0000
vn -0.0000 1.0000 -0.0000
vt 0.375000 0.000000
vt 0.625000 0.000000
vt 0.625000 0.250000
vt 0.375000 0.250000
vt 0.625000 0.500000
vt 0.375000 0.500000
vt 0.625000 0.750000
vt 0.375000 0.750000
vt 0.625000 1.000000
vt 0.375000 1.000000
vt 0.125000 0.500000
vt 0.125000 0.750000
vt 0.875000 0.500000
vt 0.875000 0.750000
s 0
usemtl Blue_Edge
f 113/197/85 114/198/85 116/199/85 115/200/85
f 115/200/86 116/199/86 120/201/86 119/202/86
f 119/202/87 120/201/87 118/203/87 117/204/87
f 117/204/88 118/203/88 114/205/88 113/206/88
f 115/207/89 119/202/89 117/204/89 113/208/89
f 120/201/90 116/209/90 114/210/90 118/203/90
o Shelf_4
v -0.415000 1.322500 0.205000
v -0.415000 1.352500 0.205000
v -0.415000 1.322500 -0.205000
v -0.415000 1.352500 -0.205000
v 0.415000 1.322500 0.205000
v 0.415000 1.352500 0.205000
v 0.415000 1.322500 -0.205000
v 0.415000 1.352500 -0.205000
vn -1.0000 -0.0000 -0.0000
vn -0.0000 -0.0000 -1.0000
vn 1.0000 -0.0000 -0.0000
vn -0.0000 -0.0000 1.0000
vn -0.0000 -1.0000 -0.0000
vn -0.0000 1.0000 -0.0000
vt 0.375000 0.000000
vt 0.625000 0.000000
vt 0.625000 0.250000
vt 0.375000 0.250000
vt 0.625000 0.500000
vt 0.375000 0.500000
vt 0.625000 0.750000
vt 0.375000 0.750000
vt 0.625000 1.000000
vt 0.375000 1.000000
vt 0.125000 0.500000
vt 0.125000 0.750000
vt 0.875000 0.500000
vt 0.875000 0.750000
s 0
usemtl Black_Shelf
f 121/211/91 122/212/91 124/213/91 123/214/91
f 123/214/92 124/213/92 128/215/92 127/216/92
f 127/216/93 128/215/93 126/217/93 125/218/93
f 125/218/94 126/217/94 122/219/94 121/220/94
f 123/221/95 127/216/95 125/218/95 121/222/95
f 128/215/96 124/223/96 122/224/96 126/217/96
o Blue_Edge_4
v -0.415000 1.347500 -0.165000
v -0.415000 1.387500 -0.165000
v -0.415000 1.347500 -0.185000
v -0.415000 1.387500 -0.185000
v 0.415000 1.347500 -0.165000
v 0.415000 1.387500 -0.165000
v 0.415000 1.347500 -0.185000
v 0.415000 1.387500 -0.185000
vn -1.0000 -0.0000 -0.0000
vn -0.0000 -0.0000 -1.0000
vn 1.0000 -0.0000 -0.0000
vn -0.0000 -0.0000 1.0000
vn -0.0000 -1.0000 -0.0000
vn -0.0000 1.0000 -0.0000
vt 0.375000 0.000000
vt 0.625000 0.000000
vt 0.625000 0.250000
vt 0.375000 0.250000
vt 0.625000 0.500000
vt 0.375000 0.500000
vt 0.625000 0.750000
vt 0.375000 0.750000
vt 0.625000 1.000000
vt 0.375000 1.000000
vt 0.125000 0.500000
vt 0.125000 0.750000
vt 0.875000 0.500000
vt 0.875000 0.750000
s 0
usemtl Blue_Edge
f 129/225/97 130/226/97 132/227/97 131/228/97
f 131/228/98 132/227/98 136/229/98 135/230/98
f 135/230/99 136/229/99 134/231/99 133/232/99
f 133/232/100 134/231/100 130/233/100 129/234/100
f 131/235/101 135/230/101 133/232/101 129/236/101
f 136/229/102 132/237/102 130/238/102 134/231/102
o Back_Grid
v -0.422000 0.115000 0.195000
v -0.418000 0.115000 0.195000
v -0.418000 1.585000 0.195000
v -0.422000 1.585000 0.195000
v -0.372000 0.115000 0.195000
v -0.368000 0.115000 0.195000
v -0.368000 1.585000 0.195000
v -0.372000 1.585000 0.195000
v -0.322000 0.115000 0.195000
v -0.318000 0.115000 0.195000
v -0.318000 1.585000 0.195000
v -0.322000 1.585000 0.195000
v -0.272000 0.115000 0.195000
v -0.268000 0.115000 0.195000
v -0.268000 1.585000 0.195000
v -0.272000 1.585000 0.195000
v -0.222000 0.115000 0.195000
v -0.218000 0.115000 0.195000
v -0.218000 1.585000 0.195000
v -0.222000 1.585000 0.195000
v -0.172000 0.115000 0.195000
v -0.168000 0.115000 0.195000
v -0.168000 1.585000 0.195000
v -0.172000 1.585000 0.195000
v -0.122000 0.115000 0.195000
v -0.118000 0.115000 0.195000
v -0.118000 1.585000 0.195000
v -0.122000 1.585000 0.195000
v -0.072000 0.115000 0.195000
v -0.068000 0.115000 0.195000
v -0.068000 1.585000 0.195000
v -0.072000 1.585000 0.195000
v -0.022000 0.115000 0.195000
v -0.018000 0.115000 0.195000
v -0.018000 1.585000 0.195000
v -0.022000 1.585000 0.195000
v 0.028000 0.115000 0.195000
v 0.032000 0.115000 0.195000
v 0.032000 1.585000 0.195000
v 0.028000 1.585000 0.195000
v 0.078000 0.115000 0.195000
v 0.082000 0.115000 0.195000
v 0.082000 1.585000 0.195000
v 0.078000 1.585000 0.195000
v 0.128000 0.115000 0.195000
v 0.132000 0.115000 0.195000
v 0.132000 1.585000 0.195000
v 0.128000 1.585000 0.195000
v 0.178000 0.115000 0.195000
v 0.182000 0.115000 0.195000
v 0.182000 1.585000 0.195000
v 0.178000 1.585000 0.195000
v 0.228000 0.115000 0.195000
v 0.232000 0.115000 0.195000
v 0.232000 1.585000 0.195000
v 0.228000 1.585000 0.195000
v 0.278000 0.115000 0.195000
v 0.282000 0.115000 0.195000
v 0.282000 1.585000 0.195000
v 0.278000 1.585000 0.195000
v 0.328000 0.115000 0.195000
v 0.332000 0.115000 0.195000
v 0.332000 1.585000 0.195000
v 0.328000 1.585000 0.195000
v 0.378000 0.115000 0.195000
v 0.382000 0.115000 0.195000
v 0.382000 1.585000 0.195000
v 0.378000 1.585000 0.195000
v -0.420000 0.113000 0.195000
v 0.420000 0.113000 0.195000
v 0.420000 0.117000 0.195000
v -0.420000 0.117000 0.195000
v -0.420000 0.163000 0.195000
v 0.420000 0.163000 0.195000
v 0.420000 0.167000 0.195000
v -0.420000 0.167000 0.195000
v -0.420000 0.213000 0.195000
v 0.420000 0.213000 0.195000
v 0.420000 0.217000 0.195000
v -0.420000 0.217000 0.195000
v -0.420000 0.263000 0.195000
v 0.420000 0.263000 0.195000
v 0.420000 0.267000 0.195000
v -0.420000 0.267000 0.195000
v -0.420000 0.313000 0.195000
v 0.420000 0.313000 0.195000
v 0.420000 0.317000 0.195000
v -0.420000 0.317000 0.195000
v -0.420000 0.363000 0.195000
v 0.420000 0.363000 0.195000
v 0.420000 0.367000 0.195000
v -0.420000 0.367000 0.195000
v -0.420000 0.413000 0.195000
v 0.420000 0.413000 0.195000
v 0.420000 0.417000 0.195000
v -0.420000 0.417000 0.195000
v -0.420000 0.463000 0.195000
v 0.420000 0.463000 0.195000
v 0.420000 0.467000 0.195000
v -0.420000 0.467000 0.195000
v -0.420000 0.513000 0.195000
v 0.420000 0.513000 0.195000
v 0.420000 0.517000 0.195000
v -0.420000 0.517000 0.195000
v -0.420000 0.563000 0.195000
v 0.420000 0.563000 0.195000
v 0.420000 0.567000 0.195000
v -0.420000 0.567000 0.195000
v -0.420000 0.613000 0.195000
v 0.420000 0.613000 0.195000
v 0.420000 0.617000 0.195000
v -0.420000 0.617000 0.195000
v -0.420000 0.663000 0.195000
v 0.420000 0.663000 0.195000
v 0.420000 0.667000 0.195000
v -0.420000 0.667000 0.195000
v -0.420000 0.713000 0.195000
v 0.420000 0.713000 0.195000
v 0.420000 0.717000 0.195000
v -0.420000 0.717000 0.195000
v -0.420000 0.763000 0.195000
v 0.420000 0.763000 0.195000
v 0.420000 0.767000 0.195000
v -0.420000 0.767000 0.195000
v -0.420000 0.813000 0.195000
v 0.420000 0.813000 0.195000
v 0.420000 0.817000 0.195000
v -0.420000 0.817000 0.195000
v -0.420000 0.863000 0.195000
v 0.420000 0.863000 0.195000
v 0.420000 0.867000 0.195000
v -0.420000 0.867000 0.195000
v -0.420000 0.913000 0.195000
v 0.420000 0.913000 0.195000
v 0.420000 0.917000 0.195000
v -0.420000 0.917000 0.195000
v -0.420000 0.963000 0.195000
v 0.420000 0.963000 0.195000
v 0.420000 0.967000 0.195000
v -0.420000 0.967000 0.195000
v -0.420000 1.013000 0.195000
v 0.420000 1.013000 0.195000
v 0.420000 1.017000 0.195000
v -0.420000 1.017000 0.195000
v -0.420000 1.063000 0.195000
v 0.420000 1.063000 0.195000
v 0.420000 1.067000 0.195000
v -0.420000 1.067000 0.195000
v -0.420000 1.113000 0.195000
v 0.420000 1.113000 0.195000
v 0.420000 1.117000 0.195000
v -0.420000 1.117000 0.195000
v -0.420000 1.163000 0.195000
v 0.420000 1.163000 0.195000
v 0.420000 1.167000 0.195000
v -0.420000 1.167000 0.195000
v -0.420000 1.213000 0.195000
v 0.420000 1.213000 0.195000
v 0.420000 1.217000 0.195000
v -0.420000 1.217000 0.195000
v -0.420000 1.263000 0.195000
v 0.420000 1.263000 0.195000
v 0.420000 1.267000 0.195000
v -0.420000 1.267000 0.195000
v -0.420000 1.313000 0.195000
v 0.420000 1.313000 0.195000
v 0.420000 1.317000 0.195000
v -0.420000 1.317000 0.195000
v -0.420000 1.363000 0.195000
v 0.420000 1.363000 0.195000
v 0.420000 1.367000 0.195000
v -0.420000 1.367000 0.195000
v -0.420000 1.413000 0.195000
v 0.420000 1.413000 0.195000
v 0.420000 1.417000 0.195000
v -0.420000 1.417000 0.195000
v -0.420000 1.463000 0.195000
v 0.420000 1.463000 0.195000
v 0.420000 1.467000 0.195000
v -0.420000 1.467000 0.195000
v -0.420000 1.513000 0.195000
v 0.420000 1.513000 0.195000
v 0.420000 1.517000 0.195000
v -0.420000 1.517000 0.195000
v -0.420000 1.563000 0.195000
v 0.420000 1.563000 0.195000
v 0.420000 1.567000 0.195000
v -0.420000 1.567000 0.195000
vn -0.0000 -0.0000 1.0000
s 0
usemtl Black_Frame
f 137//103 138//103 139//103 140//103
f 141//103 142//103 143//103 144//103
f 145//103 146//103 147//103 148//103
f 149//103 150//103 151//103 152//103
f 153//103 154//103 155//103 156//103
f 157//103 158//103 159//103 160//103
f 161//103 162//103 163//103 164//103
f 165//103 166//103 167//103 168//103
f 169//103 170//103 171//103 172//103
f 173//103 174//103 175//103 176//103
f 177//103 178//103 179//103 180//103
f 181//103 182//103 183//103 184//103
f 185//103 186//103 187//103 188//103
f 189//103 190//103 191//103 192//103
f 193//103 194//103 195//103 196//103
f 197//103 198//103 199//103 200//103
f 201//103 202//103 203//103 204//103
f 205//103 206//103 207//103 208//103
f 209//103 210//103 211//103 212//103
f 213//103 214//103 215//103 216//103
f 217//103 218//103 219//103 220//103
f 221//103 222//103 223//103 224//103
f 225//103 226//103 227//103 228//103
f 229//103 230//103 231//103 232//103
f 233//103 234//103 235//103 236//103
f 237//103 238//103 239//103 240//103
f 241//103 242//103 243//103 244//103
f 245//103 246//103 247//103 248//103
f 249//103 250//103 251//103 252//103
f 253//103 254//103 255//103 256//103
f 257//103 258//103 259//103 260//103
f 261//103 262//103 263//103 264//103
f 265//103 266//103 267//103 268//103
f 269//103 270//103 271//103 272//103
f 273//103 274//103 275//103 276//103
f 277//103 278//103 279//103 280//103
f 281//103 282//103 283//103 284//103
f 285//103 286//103 287//103 288//103
f 289//103 290//103 291//103 292//103
f 293//103 294//103 295//103 296//103
f 297//103 298//103 299//103 300//103
f 301//103 302//103 303//103 304//103
f 305//103 306//103 307//103 308//103
f 309//103 310//103 311//103 312//103
f 313//103 314//103 315//103 316//103
f 317//103 318//103 319//103 320//103
f 321//103 322//103 323//103 324//103
