{
	"asset":{
		"generator":"Khronos glTF Blender I/O v4.4.56",
		"version":"2.0"
	},
	"scene":0,
	"scenes":[
		{
			"name":"Scene",
			"nodes":[
				0,
				1,
				2,
				3,
				4
			]
		}
	],
	"nodes":[
		{
			"mesh":0,
			"name":"FreezerBody",
			"scale":[
				0.9143999814987183,
				0.45719999074935913,
				0.45719999074935913
			],
			"translation":[
				0,
				0.45719999074935913,
				0
			]
		},
		{
			"mesh":1,
			"name":"GlassCover_Left",
			"scale":[
				0.44449999928474426,
				0.01269999984651804,
				0.44449999928474426
			],
			"translation":[
				-0.45719999074935913,
				0.9017000198364258,
				0
			]
		},
		{
			"mesh":2,
			"name":"GlassCover_Right",
			"scale":[
				0.44449999928474426,
				0.01269999984651804,
				0.44449999928474426
			],
			"translation":[
				0.45719999074935913,
				0.9017000198364258,
				0
			]
		},
		{
			"mesh":3,
			"name":"Handle_Left",
			"rotation":[
				0.7071080803871155,
				0,
				0,
				0.7071055769920349
			],
			"scale":[
				0.01269999984651804,
				0.20319999754428864,
				0.01269999984651804
			],
			"translation":[
				-0.45719999074935913,
				0.9143999814987183,
				0.4318000078201294
			]
		},
		{
			"mesh":4,
			"name":"Handle_Right",
			"rotation":[
				0.7071080803871155,
				0,
				0,
				0.7071055769920349
			],
			"scale":[
				0.01269999984651804,
				0.20319999754428864,
				0.01269999984651804
			],
			"translation":[
				0.45719999074935913,
				0.9143999814987183,
				0.4318000078201294
			]
		}
	],
	"materials":[
		{
			"doubleSided":true,
			"name":"FreezerMetal",
			"pbrMetallicRoughness":{
				"baseColorFactor":[
					0.800000011920929,
					0.800000011920929,
					0.8500000238418579,
					1
				],
				"metallicFactor":0.8999999761581421,
				"roughnessFactor":0.20000000298023224
			}
		},
		{
			"alphaMode":"BLEND",
			"doubleSided":true,
			"name":"FrostedGlass",
			"pbrMetallicRoughness":{
				"baseColorFactor":[
					0.8999999761581421,
					0.949999988079071,
					1,
					0.5
				],
				"metallicFactor":0,
				"roughnessFactor":0.30000001192092896
			}
		},
		{
			"doubleSided":true,
			"name":"Handle",
			"pbrMetallicRoughness":{
				"baseColorFactor":[
					0.800000011920929,
					0.800000011920929,
					0.800000011920929,
					1
				],
				"metallicFactor":0,
				"roughnessFactor":0.5
			}
		}
	],
	"meshes":[
		{
			"name":"\ud050\ube0c.031",
			"primitives":[
				{
					"attributes":{
						"POSITION":0,
						"NORMAL":1,
						"TEXCOORD_0":2
					},
					"indices":3,
					"material":0
				}
			]
		},
		{
			"name":"\ud050\ube0c.032",
			"primitives":[
				{
					"attributes":{
						"POSITION":4,
						"NORMAL":5,
						"TEXCOORD_0":6
					},
					"indices":3,
					"material":1
				}
			]
		},
		{
			"name":"\ud050\ube0c.033",
			"primitives":[
				{
					"attributes":{
						"POSITION":7,
						"NORMAL":8,
						"TEXCOORD_0":9
					},
					"indices":3,
					"material":1
				}
			]
		},
		{
			"name":"\uc2e4\ub9b0\ub354",
			"primitives":[
				{
					"attributes":{
						"POSITION":10,
						"NORMAL":11,
						"TEXCOORD_0":12
					},
					"indices":13,
					"material":2
				}
			]
		},
		{
			"name":"\uc2e4\ub9b0\ub354.001",
			"primitives":[
				{
					"attributes":{
						"POSITION":14,
						"NORMAL":15,
						"TEXCOORD_0":16
					},
					"indices":13,
					"material":2
				}
			]
		}
	],
	"accessors":[
		{
			"bufferView":0,
			"componentType":5126,
			"count":24,
			"max":[
				1,
				1,
				1
			],
			"min":[
				-1,
				-1,
				-1
			],
			"type":"VEC3"
		},
		{
			"bufferView":1,
			"componentType":5126,
			"count":24,
			"type":"VEC3"
		},
		{
			"bufferView":2,
			"componentType":5126,
			"count":24,
			"type":"VEC2"
		},
		{
			"bufferView":3,
			"componentType":5123,
			"count":36,
			"type":"SCALAR"
		},
		{
			"bufferView":4,
			"componentType":5126,
			"count":24,
			"max":[
				1,
				1,
				1
			],
			"min":[
				-1,
				-1,
				-1
			],
			"type":"VEC3"
		},
		{
			"bufferView":5,
			"componentType":5126,
			"count":24,
			"type":"VEC3"
		},
		{
			"bufferView":6,
			"componentType":5126,
			"count":24,
			"type":"VEC2"
		},
		{
			"bufferView":7,
			"componentType":5126,
			"count":24,
			"max":[
				1,
				1,
				1
			],
			"min":[
				-1,
				-1,
				-1
			],
			"type":"VEC3"
		},
		{
			"bufferView":8,
			"componentType":5126,
			"count":24,
			"type":"VEC3"
		},
		{
			"bufferView":9,
			"componentType":5126,
			"count":24,
			"type":"VEC2"
		},
		{
			"bufferView":10,
			"componentType":5126,
			"count":192,
			"max":[
				1,
				1,
				1
			],
			"min":[
				-1,
				-1,
				-1
			],
			"type":"VEC3"
		},
		{
			"bufferView":11,
			"componentType":5126,
			"count":192,
			"type":"VEC3"
		},
		{
			"bufferView":12,
			"componentType":5126,
			"count":192,
			"type":"VEC2"
		},
		{
			"bufferView":13,
			"componentType":5123,
			"count":372,
			"type":"SCALAR"
		},
		{
			"bufferView":14,
			"componentType":5126,
			"count":192,
			"max":[
				1,
				1,
				1
			],
			"min":[
				-1,
				-1,
				-1
			],
			"type":"VEC3"
		},
		{
			"bufferView":15,
			"componentType":5126,
			"count":192,
			"type":"VEC3"
		},
		{
			"bufferView":16,
			"componentType":5126,
			"count":192,
			"type":"VEC2"
		}
	],
	"bufferViews":[
		{
			"buffer":0,
			"byteLength":288,
			"byteOffset":0,
			"target":34962
		},
		{
			"buffer":0,
			"byteLength":288,
			"byteOffset":288,
			"target":34962
		},
		{
			"buffer":0,
			"byteLength":192,
			"byteOffset":576,
			"target":34962
		},
		{
			"buffer":0,
			"byteLength":72,
			"byteOffset":768,
			"target":34963
		},
		{
			"buffer":0,
			"byteLength":288,
			"byteOffset":840,
			"target":34962
		},
		{
			"buffer":0,
			"byteLength":288,
			"byteOffset":1128,
			"target":34962
		},
		{
			"buffer":0,
			"byteLength":192,
			"byteOffset":1416,
			"target":34962
		},
		{
			"buffer":0,
			"byteLength":288,
			"byteOffset":1608,
			"target":34962
		},
		{
			"buffer":0,
			"byteLength":288,
			"byteOffset":1896,
			"target":34962
		},
		{
			"buffer":0,
			"byteLength":192,
			"byteOffset":2184,
			"target":34962
		},
		{
			"buffer":0,
			"byteLength":2304,
			"byteOffset":2376,
			"target":34962
		},
		{
			"buffer":0,
			"byteLength":2304,
			"byteOffset":4680,
			"target":34962
		},
		{
			"buffer":0,
			"byteLength":1536,
			"byteOffset":6984,
			"target":34962
		},
		{
			"buffer":0,
			"byteLength":744,
			"byteOffset":8520,
			"target":34963
		},
		{
			"buffer":0,
			"byteLength":2304,
			"byteOffset":9264,
			"target":34962
		},
		{
			"buffer":0,
			"byteLength":2304,
			"byteOffset":11568,
			"target":34962
		},
		{
			"buffer":0,
			"byteLength":1536,
			"byteOffset":13872,
			"target":34962
		}
	],
	"buffers":[
		{
			"byteLength":15408,
			"uri":"freezer_chest.bin"
		}
	]
}
